<mxfile host="app.diagrams.net" modified="2024-04-05T09:24:11.228Z" agent="Mozilla/5.0 (Macintosh; Intel Mac OS X 10_15_7) AppleWebKit/537.36 (KHTML, like Gecko) Chrome/123.0.0.0 Safari/537.36" version="24.0.0" etag="x3YzSjyOURMELRnJQJqz" type="github">
  <diagram name="Page-1" id="ouYQnSYl4p-uSKoQMJvw">
    <mxGraphModel>
      <root>
        <mxCell id="0" />
        <mxCell id="1" parent="0" />
      </root>
    </mxGraphModel>
  </diagram>
</mxfile>
